<mxfile host="app.diagrams.net" modified="2021-07-22T07:03:22.937Z" agent="5.0 (Windows NT 10.0; Win64; x64) AppleWebKit/537.36 (KHTML, like Gecko) Chrome/91.0.4472.164 Safari/537.36" etag="xY-2vkETVtpu1ruqhUx9" version="14.9.1" type="github">
  <diagram id="AAHXCASsmrZSgbwb5uzF" name="Page-1">
    <mxGraphModel dx="782" dy="436" grid="1" gridSize="10" guides="1" tooltips="1" connect="1" arrows="1" fold="1" page="1" pageScale="1" pageWidth="827" pageHeight="1169" math="0" shadow="0">
      <root>
        <mxCell id="0" />
        <mxCell id="1" parent="0" />
        <mxCell id="_nv_0rigp4KZT1mHG9BW-2" value="&lt;h2&gt;&lt;font color=&quot;#ff3399&quot;&gt;expr&amp;nbsp; &lt;/font&gt;:&lt;font color=&quot;#97d077&quot;&gt;term&lt;/font&gt;&lt;/h2&gt;&lt;h2&gt;&amp;nbsp; &amp;nbsp; | expr (&#39;+&#39; |&#39;-&#39;) term;&lt;/h2&gt;&lt;h2&gt;&amp;nbsp;term:factor&lt;/h2&gt;&lt;h2&gt;&amp;nbsp; &amp;nbsp; &amp;nbsp;|factor (&#39;*&#39;|&#39;/&#39;) term;&lt;/h2&gt;&lt;h2&gt;&lt;br&gt;&lt;/h2&gt;&lt;h2&gt;&lt;font color=&quot;#ff8000&quot;&gt;factor&lt;/font&gt;:NUMBER;&lt;/h2&gt;" style="text;html=1;strokeColor=#6c8ebf;align=left;verticalAlign=middle;whiteSpace=wrap;rounded=0;fillColor=#dae8fc;" vertex="1" parent="1">
          <mxGeometry x="60" y="50" width="290" height="240" as="geometry" />
        </mxCell>
        <mxCell id="_nv_0rigp4KZT1mHG9BW-6" value="&lt;h2&gt;&lt;font color=&quot;#ff66b3&quot;&gt;public Node Expr(){}&lt;/font&gt;&lt;/h2&gt;&lt;h2&gt;&lt;br&gt;&lt;font color=&quot;#66ff66&quot;&gt;public Node Term()&lt;/font&gt;&lt;br&gt;&lt;br&gt;&lt;/h2&gt;&lt;h2&gt;&lt;font color=&quot;#ffb366&quot;&gt;public Node Factor()&lt;/font&gt;&lt;/h2&gt;" style="text;html=1;strokeColor=#82b366;fillColor=#d5e8d4;align=left;verticalAlign=middle;whiteSpace=wrap;rounded=0;" vertex="1" parent="1">
          <mxGeometry x="360" y="50" width="290" height="240" as="geometry" />
        </mxCell>
      </root>
    </mxGraphModel>
  </diagram>
</mxfile>
